<?xml version="1.0" encoding="utf-8"?>
<!-- Generator: Adobe Illustrator 18.0.0, SVG Export Plug-In . SVG Version: 6.00 Build 0)  -->
<!DOCTYPE svg PUBLIC "-//W3C//DTD SVG 1.1//EN" "http://www.w3.org/Graphics/SVG/1.1/DTD/svg11.dtd">
<svg version="1.1" id="Layer_1" xmlns="http://www.w3.org/2000/svg" xmlns:xlink="http://www.w3.org/1999/xlink" x="0px" y="0px"
	 viewBox="0 0 403.7 499.6" enable-background="new 0 0 403.7 499.6" xml:space="preserve">
<g>
	<polygon fill="#74C7A5" points="101,0 101,99.6 0.4,0 	"/>
</g>
<g>
	<polygon fill="#74C7A5" points="302,0 302,99.6 201.2,0 	"/>
</g>
<g>
	<polygon fill="#74C7A5" points="201,0 201,99.6 100.8,0 	"/>
</g>
<g>
	<polygon fill="#74C7A5" points="101,400 101,499.6 0.4,400 	"/>
</g>
<g>
	<polygon fill="#74C7A5" points="302,400 302,499.6 201.2,400 	"/>
</g>
<g>
	<polygon fill="#74C7A5" points="201,400 201,499.6 100.8,400 	"/>
</g>
<g>
	<polygon fill="#74C7A5" points="101,200 101,299.3 0.4,200 	"/>
</g>
<g>
	<polygon fill="#74C7A5" points="302,200 302,299.3 201.2,200 	"/>
</g>
<g>
	<polygon fill="#74C7A5" points="201,200 201,299.3 100.8,200 	"/>
</g>
<g>
	<polygon fill="#25BFD2" points="201,200 201,98.7 301.7,200 	"/>
</g>
<g>
	<polygon fill="#25BFD2" points="0,200 0,98.7 100.9,200 	"/>
</g>
<g>
	<polygon fill="#25BFD2" points="101,200 101,98.7 201.3,200 	"/>
</g>
<g>
	<polygon fill="#25BFD2" points="201,400 201,298.7 301.7,400 	"/>
</g>
<g>
	<polygon fill="#74C7A5" points="404,0 404,99.6 303.2,0 	"/>
</g>
<g>
	<polygon fill="#74C7A5" points="404,400 404,499.6 303.2,400 	"/>
</g>
<g>
	<polygon fill="#74C7A5" points="404,200 404,299.3 303.2,200 	"/>
</g>
<g>
	<polygon fill="#25BFD2" points="303,200 303,98.7 403.7,200 	"/>
</g>
<g>
	<polygon fill="#25BFD2" points="303,400 303,298.7 403.7,400 	"/>
</g>
<g>
	<polygon fill="#25BFD2" points="0,400 0,298.7 100.9,400 	"/>
</g>
<g>
	<polygon fill="#25BFD2" points="101,400 101,298.7 201.3,400 	"/>
</g>
</svg>
