<?xml version="1.0" encoding="utf-8"?>
<!-- Generator: Adobe Illustrator 18.0.0, SVG Export Plug-In . SVG Version: 6.00 Build 0)  -->
<!DOCTYPE svg PUBLIC "-//W3C//DTD SVG 1.1//EN" "http://www.w3.org/Graphics/SVG/1.1/DTD/svg11.dtd">
<svg version="1.1" id="Layer_1" xmlns="http://www.w3.org/2000/svg" xmlns:xlink="http://www.w3.org/1999/xlink" x="0px" y="0px"
	 viewBox="0 0 612 191" enable-background="new 0 0 612 191" xml:space="preserve">
<g>
	<g>
		<path fill="#6F52A2" d="M151.2,66h6.8V55.2c0-4.2-2.6-3.2-6.8-3.2H149V39.9c0-4.2-1.3-5.9-5.5-5.9h-7.7l0,0h-15.4H105h1v-9.4
			c0-4.2-4.5-4.6-8.7-4.6H88v4.6v7.7l0,0v-7.7V20h-6c-4.2,0-8,0.4-8,4.6V34h0.3H58.9H45v13.6l0,0V34h-9.2c-4.2,0-7.8,1.7-7.8,5.9V52
			h0.1c-4.2,0-6.1-1-6.1,3.2V66h6.1h0.1l0,0h-0.1H22v4.4c0,4.2,1.9,10.6,6.1,10.6H28v4.7c0,4.2,3.6,9.3,7.8,9.3H45V78l0,0v17h13.9
			H74v9H58.9H45v12.1l0,0V104h-9.2c-4.2,0-7.8,0.3-7.8,4.5v7.6l0,0v15.2V150h17v4.2l0,0V150h-9.2H28v4.2c0,4.2,3.6,9.8,7.8,9.8H45
			v-2.2v0v2.2h-1.4c0,6,3.4,9,7.6,9H60v-4.6c0,0.5-0.6,4.6-0.1,4.6h13.4c0.5,0,0.7-4,0.7-4.6V164h15.7H105h0c0,6,3.4,9,7.6,9h7.4
			v-4.6c0,0.5,0.8,4.6,1.4,4.6h13.4c0.5,0,3.2-4,3.2-4.6V164h5.5c4.2,0,5.5-5.6,5.5-9.8V150h-5.5h-7.7l0,0H149v-18.7v-15.2l0,0v-7.6
			c0-4.2-1.3-4.5-5.5-4.5h-7.7h-15.4H105l1-3.1v-7.6l-1,1.7h15.4h15.4h7.7c4.2,0,5.5-5.1,5.5-9.3V81h2.2c4.2,0,6.8-6.4,6.8-10.6V66
			H151.2L151.2,66L151.2,66L151.2,66z"/>
	</g>
	<g>
		<circle fill="#FFFFFF" cx="66.6" cy="63.1" r="8.1"/>
	</g>
	<g>
		<circle fill="#FFFFFF" cx="112.7" cy="62.8" r="8.1"/>
	</g>
</g>
<g>
	<g>
		<path fill="#7153A2" d="M208,130.3c-0.6,2-1.6,2.4-4,2.4H199c-2.6,0-4.1,0-3.4-2.4c5.2-18.9,12.2-39.9,17.4-54.4
			c1-2.9,2.3-3.3,6.1-3.3h4.6c3.8,0,5.3,0.5,6.3,3.3c5.3,14.5,12,35.5,17.2,54.4c0.7,2.4-0.7,2.4-3.3,2.4h-4.9c-2.4,0-3.4-0.4-4-2.4
			l-3.1-11.4H211L208,130.3z M220.9,84.5c-2.4,7.9-4.8,16.4-7.2,24.6h15.4c-2.3-8.3-4.7-16.7-7.2-24.6H220.9z"/>
	</g>
	<g>
		<path fill="#7153A2" d="M265.9,130.4c0,2-0.5,2.3-2.5,2.3h-6.7c-2,0-2.5-0.4-2.5-2.3v-54c0-2.8,0.7-3.5,3.3-3.9
			c3.4-0.5,7.6-0.7,13.5-0.7c9.1,0,15,1.2,19.1,4.4c3.3,2.6,4.7,6.8,4.7,13.1v1.6c0,8.5-3.6,14.5-11.5,17.2l13.8,22.8
			c0.7,1.2,0.2,2-2.1,2H288c-2.2,0-3.1-0.7-3.9-2l-11.6-20.7c-0.4-0.7-0.8-0.9-1.9-0.9h-4.7V130.4z M267,81.4
			c-0.8,0.1-1.1,0.4-1.1,1.3v16.7h4.1c5.4,0,8.5-0.6,10.1-1.8c2-1.4,2.6-3.9,2.6-7.1v-1.1c0-3.3-0.5-5-1.9-6.3c-1.5-1.4-4.1-2-9.2-2
			C269.8,81.2,268.2,81.2,267,81.4z"/>
	</g>
	<g>
		<path fill="#7153A2" d="M327.9,130.4c0,2-0.5,2.3-2.5,2.3h-6.7c-2,0-2.5-0.4-2.5-2.3V82.1h-13c-2.1,0-2.3-0.6-2.3-2.2v-5.1
			c0-1.8,0.5-2.2,2.3-2.2h37.8c1.9,0,2.3,0.5,2.3,2.2v5.1c0,1.7-0.2,2.2-2.3,2.2h-13V130.4z"/>
	</g>
	<g>
		<path fill="#7153A2" d="M360.8,106.5c0,5,0.2,9.3,0.7,14c0.2,2.1,1,2.6,3,2.6h20.2c2.1,0,2.4,0.5,2.4,2.2v5.1
			c0,1.7-0.3,2.2-2.4,2.2h-21.3c-4.7,0-7.9-0.6-9.9-2.2c-2-1.7-2.7-4.2-3.3-8.6c-0.6-4.9-0.8-11.7-0.8-17.4v-3.8
			c0-5.4,0.3-12.5,0.8-17.4c0.5-4.6,1.6-7.1,3.6-8.7c2.1-1.7,5.2-2,9.6-2h21.4c2.1,0,2.3,0.5,2.3,2.2v5.1c0,1.7-0.2,2.2-2.3,2.2
			h-20.3c-1.8,0-2.9,0.7-3.1,2.8c-0.3,3.3-0.6,7.4-0.6,12h20.8c2.1,0,2.3,0.5,2.3,2.2v5.1c0,1.7-0.2,2.2-2.3,2.2H360.8z"/>
	</g>
	<g>
		<path fill="#7153A2" d="M407.1,106.5c0,5,0.2,9.3,0.7,14c0.2,2.1,1,2.6,3,2.6H431c2.1,0,2.4,0.5,2.4,2.2v5.1
			c0,1.7-0.3,2.2-2.4,2.2h-21.3c-4.7,0-7.9-0.6-9.9-2.2c-2-1.7-2.7-4.2-3.3-8.6c-0.6-4.9-0.8-11.7-0.8-17.4v-3.8
			c0-5.4,0.3-12.5,0.8-17.4c0.5-4.6,1.6-7.1,3.6-8.7c2.1-1.7,5.2-2,9.6-2H431c2.1,0,2.3,0.5,2.3,2.2v5.1c0,1.7-0.2,2.2-2.3,2.2
			h-20.3c-1.8,0-2.9,0.7-3.1,2.8c-0.3,3.3-0.6,7.4-0.6,12H428c2.1,0,2.3,0.5,2.3,2.2v5.1c0,1.7-0.2,2.2-2.3,2.2H407.1z"/>
	</g>
	<g>
		<path fill="#7153A2" d="M442.9,130.9c-1.8-0.6-2.3-1.2-2-3l1-5.4c0.3-1.7,1.4-2,2.6-1.5c3.7,1.4,9.9,2.9,14,2.9c4.3,0,7.2-0.5,9-2
			c1.5-1.2,1.9-3.1,1.9-6v-0.7c0-2.4-0.4-4-1.1-4.9c-1.1-1.4-3.2-2.1-6.3-2.9l-6.4-1.4c-5.9-1.3-8.9-2.6-11.3-5.3
			c-2.2-2.4-3.5-6.4-3.5-11.3v-1.2c0-6,1.9-10.1,5.4-12.8c3.4-2.5,8.5-3.5,15.3-3.5c5.7,0,11.7,1.1,15,2.1c1.6,0.5,2,1,1.6,2.7
			l-1.4,5.9c-0.3,1.3-1.2,1.7-2.9,1.1c-4.1-1.3-8.3-2.1-12-2.1c-4,0-6,0.5-7.4,1.4c-1.3,0.9-2.1,2.6-2.1,5.6v0.7
			c0,2.3,0.4,3.6,1.5,4.7c1.2,1.2,3.3,2,6.2,2.5l6.8,1.4c5.7,1.2,9.1,2.8,11.4,5.7c2,2.6,2.8,6,2.8,10.7v1.4c0,5.8-1.7,10.7-5,13.7
			c-3.5,3.2-9.1,4.4-17,4.4C453.9,133.6,447.1,132.3,442.9,130.9z"/>
	</g>
	<g>
		<path fill="#7153A2" d="M497.5,130.3c-0.6,2-1.6,2.4-4,2.4h-4.9c-2.6,0-4.1,0-3.4-2.4c5.2-18.9,12.2-39.9,17.4-54.4
			c1-2.9,2.3-3.3,6.1-3.3h4.6c3.8,0,5.3,0.5,6.3,3.3c5.3,14.5,12,35.5,17.2,54.4c0.7,2.4-0.7,2.4-3.3,2.4h-4.9c-2.4,0-3.4-0.4-4-2.4
			l-3.1-11.4h-20.8L497.5,130.3z M510.5,84.5c-2.4,7.9-4.8,16.4-7.2,24.6h15.4c-2.3-8.3-4.7-16.7-7.2-24.6H510.5z"/>
	</g>
	<g>
		<path fill="#7153A2" d="M543.7,74.9c0-2,0.5-2.3,2.5-2.3h5.6c2.4,0,3.4,0.5,4.6,2.2l23.2,38.3h0.4V74.9c0-2,0.5-2.3,2.5-2.3h5.9
			c2,0,2.5,0.4,2.5,2.3v55.5c0,2-0.5,2.3-2.5,2.3h-5.6c-2.4,0-3.4-0.5-4.6-2.2L555,93h-0.4v37.4c0,2-0.5,2.3-2.5,2.3h-5.9
			c-2,0-2.5-0.4-2.5-2.3V74.9z"/>
	</g>
</g>
</svg>
